<svg xmlns="http://www.w3.org/2000/svg" viewBox="0 0 64 64">
  <rect width="64" height="64" rx="14" fill="#0c0f14" />
  <!-- black pawn -->
  <path
    fill="#0a0a0a"
    d="M32 12c6 0 11 4.3 11 10 0 3.2-1.6 6.1-4.2 8 3.8 2.3 6.2 6.1 6.2 10.4V42c0 2.5-1.2 4.8-3.2 6.4h6.7c1.7 0 3 1.3 3 3v3H13v-3c0-1.7 1.3-3 3-3h6.7c-2-1.6-3.2-3.9-3.2-6.4v-1.6c0-4.3 2.4-8.1 6.2-10.4-2.6-1.9-4.2-4.8-4.2-8 0-5.7 5-10 11-10Zm0 6.2c-2.7 0-5 1.8-5 3.8s2.3 3.8 5 3.8 5-1.8 5-3.8-2.3-3.8-5-3.8Z"
  />
  <path
    d="M22 52h20"
    stroke="#1f2937"
    stroke-width="3"
    stroke-linecap="round"
    opacity="0.7"
  />
</svg>
